solid RectangularSlab
   facet normal -1.000000e+000 0.000000e+000 0.000000e+000
      outer loop
         vertex -1.520000e-001  4.330237e-003  4.534394e-003
         vertex -1.520000e-001  4.330237e-003 -4.534394e-003
         vertex -1.520000e-001 -4.330237e-003  4.534394e-003
      endloop
   endfacet
   facet normal -1.000000e+000 0.000000e+000 0.000000e+000
      outer loop
         vertex -1.520000e-001 -4.330237e-003  4.534394e-003
         vertex -1.520000e-001  4.330237e-003 -4.534394e-003
         vertex -1.520000e-001 -4.330237e-003 -4.534394e-003
      endloop
   endfacet
   facet normal 0.000000e+000 0.000000e+000 1.000000e+000
      outer loop
         vertex  1.520000e-001  4.330237e-003  4.534394e-003
         vertex -1.520000e-001  4.330237e-003  4.534394e-003
         vertex  1.520000e-001 -4.330237e-003  4.534394e-003
      endloop
   endfacet
   facet normal 0.000000e+000 0.000000e+000 1.000000e+000
      outer loop
         vertex  1.520000e-001 -4.330237e-003  4.534394e-003
         vertex -1.520000e-001  4.330237e-003  4.534394e-003
         vertex -1.520000e-001 -4.330237e-003  4.534394e-003
      endloop
   endfacet
   facet normal 1.000000e+000 0.000000e+000 0.000000e+000
      outer loop
         vertex  1.520000e-001  4.330237e-003 -4.534394e-003
         vertex  1.520000e-001  4.330237e-003  4.534394e-003
         vertex  1.520000e-001 -4.330237e-003 -4.534394e-003
      endloop
   endfacet
   facet normal 1.000000e+000 0.000000e+000 0.000000e+000
      outer loop
         vertex  1.520000e-001 -4.330237e-003 -4.534394e-003
         vertex  1.520000e-001  4.330237e-003  4.534394e-003
         vertex  1.520000e-001 -4.330237e-003  4.534394e-003
      endloop
   endfacet
   facet normal 0.000000e+000 0.000000e+000 -1.000000e+000
      outer loop
         vertex -1.520000e-001  4.330237e-003 -4.534394e-003
         vertex  1.520000e-001  4.330237e-003 -4.534394e-003
         vertex -1.520000e-001 -4.330237e-003 -4.534394e-003
      endloop
   endfacet
   facet normal 0.000000e+000 0.000000e+000 -1.000000e+000
      outer loop
         vertex -1.520000e-001 -4.330237e-003 -4.534394e-003
         vertex  1.520000e-001  4.330237e-003 -4.534394e-003
         vertex  1.520000e-001 -4.330237e-003 -4.534394e-003
      endloop
   endfacet
   facet normal 0.000000e+000 1.000000e+000 0.000000e+000
      outer loop
         vertex  1.520000e-001  4.330237e-003  4.534394e-003
         vertex  1.520000e-001  4.330237e-003 -4.534394e-003
         vertex -1.520000e-001  4.330237e-003  4.534394e-003
      endloop
   endfacet
   facet normal 0.000000e+000 1.000000e+000 0.000000e+000
      outer loop
         vertex -1.520000e-001  4.330237e-003  4.534394e-003
         vertex  1.520000e-001  4.330237e-003 -4.534394e-003
         vertex -1.520000e-001  4.330237e-003 -4.534394e-003
      endloop
   endfacet
   facet normal 0.000000e+000 -1.000000e+000 0.000000e+000
      outer loop
         vertex  1.520000e-001 -4.330237e-003 -4.534394e-003
         vertex  1.520000e-001 -4.330237e-003  4.534394e-003
         vertex -1.520000e-001 -4.330237e-003 -4.534394e-003
      endloop
   endfacet
   facet normal 0.000000e+000 -1.000000e+000 0.000000e+000
      outer loop
         vertex -1.520000e-001 -4.330237e-003 -4.534394e-003
         vertex  1.520000e-001 -4.330237e-003  4.534394e-003
         vertex -1.520000e-001 -4.330237e-003  4.534394e-003
      endloop
   endfacet
endsolid