solid RectangularSlab
   facet normal -1.000000e+000 0.000000e+000 0.000000e+000
      outer loop
         vertex -7.500000e-002  2.500000e-003  7.500000e-003
         vertex -7.500000e-002  2.500000e-003 -7.500000e-003
         vertex -7.500000e-002 -2.500000e-003  7.500000e-003
      endloop
   endfacet
   facet normal -1.000000e+000 0.000000e+000 0.000000e+000
      outer loop
         vertex -7.500000e-002 -2.500000e-003  7.500000e-003
         vertex -7.500000e-002  2.500000e-003 -7.500000e-003
         vertex -7.500000e-002 -2.500000e-003 -7.500000e-003
      endloop
   endfacet
   facet normal 0.000000e+000 0.000000e+000 1.000000e+000
      outer loop
         vertex  7.500000e-002  2.500000e-003  7.500000e-003
         vertex -7.500000e-002  2.500000e-003  7.500000e-003
         vertex  7.500000e-002 -2.500000e-003  7.500000e-003
      endloop
   endfacet
   facet normal 0.000000e+000 0.000000e+000 1.000000e+000
      outer loop
         vertex  7.500000e-002 -2.500000e-003  7.500000e-003
         vertex -7.500000e-002  2.500000e-003  7.500000e-003
         vertex -7.500000e-002 -2.500000e-003  7.500000e-003
      endloop
   endfacet
   facet normal 1.000000e+000 0.000000e+000 0.000000e+000
      outer loop
         vertex  7.500000e-002  2.500000e-003 -7.500000e-003
         vertex  7.500000e-002  2.500000e-003  7.500000e-003
         vertex  7.500000e-002 -2.500000e-003 -7.500000e-003
      endloop
   endfacet
   facet normal 1.000000e+000 0.000000e+000 0.000000e+000
      outer loop
         vertex  7.500000e-002 -2.500000e-003 -7.500000e-003
         vertex  7.500000e-002  2.500000e-003  7.500000e-003
         vertex  7.500000e-002 -2.500000e-003  7.500000e-003
      endloop
   endfacet
   facet normal 0.000000e+000 0.000000e+000 -1.000000e+000
      outer loop
         vertex -7.500000e-002  2.500000e-003 -7.500000e-003
         vertex  7.500000e-002  2.500000e-003 -7.500000e-003
         vertex -7.500000e-002 -2.500000e-003 -7.500000e-003
      endloop
   endfacet
   facet normal 0.000000e+000 0.000000e+000 -1.000000e+000
      outer loop
         vertex -7.500000e-002 -2.500000e-003 -7.500000e-003
         vertex  7.500000e-002  2.500000e-003 -7.500000e-003
         vertex  7.500000e-002 -2.500000e-003 -7.500000e-003
      endloop
   endfacet
   facet normal 0.000000e+000 1.000000e+000 0.000000e+000
      outer loop
         vertex  7.500000e-002  2.500000e-003  7.500000e-003
         vertex  7.500000e-002  2.500000e-003 -7.500000e-003
         vertex -7.500000e-002  2.500000e-003  7.500000e-003
      endloop
   endfacet
   facet normal 0.000000e+000 1.000000e+000 0.000000e+000
      outer loop
         vertex -7.500000e-002  2.500000e-003  7.500000e-003
         vertex  7.500000e-002  2.500000e-003 -7.500000e-003
         vertex -7.500000e-002  2.500000e-003 -7.500000e-003
      endloop
   endfacet
   facet normal 0.000000e+000 -1.000000e+000 0.000000e+000
      outer loop
         vertex  7.500000e-002 -2.500000e-003 -7.500000e-003
         vertex  7.500000e-002 -2.500000e-003  7.500000e-003
         vertex -7.500000e-002 -2.500000e-003 -7.500000e-003
      endloop
   endfacet
   facet normal 0.000000e+000 -1.000000e+000 0.000000e+000
      outer loop
         vertex -7.500000e-002 -2.500000e-003 -7.500000e-003
         vertex  7.500000e-002 -2.500000e-003  7.500000e-003
         vertex -7.500000e-002 -2.500000e-003  7.500000e-003
      endloop
   endfacet
endsolid